<?xml version="1.0" encoding="UTF-8" standalone="no"?>
<!-- Created with Inkscape (http://www.inkscape.org/) -->

<svg
   version="1.1"
   id="svg112"
   width="256"
   height="256"
   viewBox="0 0 256 256"
   sodipodi:docname="inverted.svg"
   inkscape:version="1.2.2 (b0a8486541, 2022-12-01)"
   inkscape:export-filename="appIcon.png"
   inkscape:export-xdpi="24"
   inkscape:export-ydpi="24"
   xml:space="preserve"
   xmlns:inkscape="http://www.inkscape.org/namespaces/inkscape"
   xmlns:sodipodi="http://sodipodi.sourceforge.net/DTD/sodipodi-0.dtd"
   xmlns="http://www.w3.org/2000/svg"
   xmlns:svg="http://www.w3.org/2000/svg"><sodipodi:namedview
     id="namedview6"
     pagecolor="#ffffff"
     bordercolor="#000000"
     borderopacity="0.25"
     inkscape:showpageshadow="2"
     inkscape:pageopacity="0.0"
     inkscape:pagecheckerboard="0"
     inkscape:deskcolor="#d1d1d1"
     showgrid="false"
     inkscape:zoom="4.0933322"
     inkscape:cx="139.6173"
     inkscape:cy="96.498397"
     inkscape:window-width="2560"
     inkscape:window-height="1368"
     inkscape:window-x="1920"
     inkscape:window-y="0"
     inkscape:window-maximized="1"
     inkscape:current-layer="svg112" /><defs
     id="defs116" /><g
     id="g849"
     transform="matrix(0.5357515,0,0,0.5357515,9.976189,0.4820456)"><path
       d="M 1549.1166,4.1006287 Q 1386.3504,-34.912789 1281.0142,-183.22618 1175.678,-331.53957 1175.678,-507.45441 v -277.16355 l 373.4141,-140.91534 373.4141,140.91534 v 276.67868 q 0,176.52456 -105.3117,324.77553 -105.3117,148.250961 -268.0779,187.2643787 z"
       id="path293"
       style="fill:#144bc8;fill-opacity:1;stroke-width:1.11467"
       transform="matrix(0.51183019,0,0,0.50472887,-572.5763,470.55382)"
       inkscape:label="background" /><path
       id="background"
       style="fill:#ffffff;fill-opacity:1;stroke:none;stroke-width:0.763359"
       d="m 222.29335,55.241855 c -13.14948,-0.05559 -29.96757,9.537706 -42.30773,14.406402 L 88.507,105.98403 c -5.015341,2.11731 -10.099934,4.50784 -12.845744,9.98572 -7.03223,14.02737 11.647014,39.47432 22.257084,46.1224 -2.31369,-4.69732 -3.03405,-18.96692 -1.42086,-26.81408 3.39261,-16.50282 11.82046,-21.45286 24.68046,-29.7455 l 0.72601,14.44715 c 23.63704,-9.61056 47.32787,-19.32556 71.15004,-28.356635 8.22436,-3.11816 19.37696,-9.030248 29.04083,-10.286686 31.65619,10.375797 63.90344,23.690371 92.05427,34.986071 7.22898,2.90387 14.56398,5.48575 21.78063,8.43377 2.81259,1.14934 8.38562,3.21277 10.2848,5.99142 2.45831,3.59655 1.48188,9.88748 1.48188,14.11326 v 34.51263 c 0,49.19573 0.95922,105.46302 -33.14408,143.22144 -2.36014,-0.58368 -0.1089,-6.94274 3.41078,-13.19673 3.33228,-5.92099 5.57693,-11.11407 7.96669,-16.09934 2.96079,-6.17658 3.85648,-11.97574 5.62391,-20.54984 6.50152,-38.82268 -12.32827,-81.17892 -46.29504,-97.38862 4.59353,6.65898 9.87432,43.90079 8.71224,52.97288 -3.25185,21.20278 -12.38888,38.95275 -12.34097,60.99908 0.0189,8.7309 -0.0211,20.45557 5.9533,26.75691 3.87792,-5.29221 3.54628,-7.1282 10.83837,-14.02794 -9.51378,32.14165 -38.634,57.0588 -71.24462,50.67799 v -0.80262 c 11.72086,-1.73848 30.5694,-20.65732 18.01438,-33.43098 -14.13633,-14.38374 -39.44508,9.81632 -41.97307,25.40478 -22.66417,-7.79744 -33.66487,-30.81339 -38.4791,-54.57814 5.63841,-8.62612 21.79527,-0.96417 29.60803,-2.91575 7.95721,-1.62608 14.88965,-14.07964 4.49935,-23.9673 -7.28416,-6.45304 -23.45828,-4.32149 -33.32662,-1.31636 8.17064,-28.509 42.09949,-36.10369 59.47897,-53.78378 6.78828,-6.90573 16.06161,-18.36913 14.97983,-29.58091 -0.53653,-5.56456 -5.26787,-8.53343 -9.17168,-11.17083 -22.2136,-14.47871 -46.33228,-18.34137 -69.69799,-12.25248 -5.89455,1.58835 -14.39338,7.63498 -20.32858,6.80188 -4.45922,-0.62604 -8.5152,-5.5219 -11.26609,-9.06866 -8.02034,-10.34175 -12.4581,-24.1221 -12.69261,-37.71686 -14.75126,8.77663 -17.02397,37.93065 -8.64134,52.45244 2.94692,5.10627 6.75298,7.3965 10.81942,10.95451 -25.63578,-7.28457 -47.987081,-17.65365 -53.725542,-49.76242 -7.043847,5.60548 -7.38321,18.66653 -6.067661,27.28907 2.557038,16.75547 11.583255,32.32137 25.670223,39.9021 5.84301,3.14386 12.03743,3.75157 18.15051,5.8472 v 0.80263 c 0,0 -17.633114,-1.08684 -26.13674,-3.00512 -10.210734,-2.30336 -28.31481,-14.65251 -28.31481,-14.65251 2.487346,29.04998 31.568131,50.16612 56.62962,37.72313 -5.51848,10.71817 -10.20095,20.71721 -12.56924,32.90738 -12.035226,61.95253 30.43883,112.32673 75.00702,141.42407 11.10086,7.24766 22.89001,13.1767 34.849,18.45713 5.60488,2.47447 12.02582,5.88731 18.15052,6.08235 7.19558,0.23035 14.53858,-4.00356 21.0546,-6.88496 14.85724,-6.57025 29.17736,-14.38226 42.83524,-23.60676 41.07453,-27.7409 72.76896,-71.25911 81.6787,-124.23514 4.43888,-26.39413 3.26571,-53.54117 3.26571,-80.26195 v -51.36765 c -7.2e-4,-8.37855 0,-17.76205 -6.59662,-23.37317 -9.38601,-7.98605 -23.4117,-11.282548 -34.49877,-15.578971 -22.54723,-8.737308 -44.79001,-17.56649 -67.17242,-26.806241 -11.78549,-4.864671 -25.44984,-13.3697 -38.91587,-13.426633 z M 187.50532,167.03328 c 1.63121,0.0191 3.20194,0.21988 4.67235,0.59726 9.28735,2.38261 12.67043,11.15104 7.57358,19.62969 l -0.23824,0.3872 c -5.33043,8.41751 -17.07922,13.20377 -26.30123,10.71468 -9.22214,-2.48861 -12.45828,-11.31877 -7.24459,-19.76764 4.27352,-6.92516 13.09331,-11.65944 21.53813,-11.56119 z"
       inkscape:label="icon"
       sodipodi:nodetypes="sccccscccccccsscsscccsccccccccccscccccccccccccscccccccccsccccsccccccc" /></g></svg>
